<?xml version="1.0" encoding="utf-8"?>
<!-- Generator: Adobe Illustrator 18.0.0, SVG Export Plug-In . SVG Version: 6.00 Build 0)  -->
<!DOCTYPE svg PUBLIC "-//W3C//DTD SVG 1.1//EN" "http://www.w3.org/Graphics/SVG/1.1/DTD/svg11.dtd">
<svg version="1.1" id="Layer_1" xmlns="http://www.w3.org/2000/svg" xmlns:xlink="http://www.w3.org/1999/xlink" x="0px" y="0px"
	 viewBox="0 0 250 250" enable-background="new 0 0 250 250" xml:space="preserve">
<path fill="#875543" d="M125,0C56.1,0,0,56.1,0,125s56.1,125,125,125s125-56.1,125-125S193.9,0,125,0z M125,12.6
	c62,0,112.4,50.4,112.4,112.4c0,3.3-0.2,6.6-0.4,9.9c-3.5,0-6.9,0-10.4,0.1c-18-17.8-35.5-35-54.3-53.7c-3.7,4.6-7.7,9.5-13.2,16.3
	c-12.5-13.1-23.9-25.1-35.2-36.9c-14.8,14.5-29.3,28.7-45.6,44.5c-3.5-4.9-7.1-10-9-12.8c-16.2,15-31.3,29.1-47.1,43.7
	c-3,0-6.1,0-9.1,0.1c-0.4-3.7-0.6-7.5-0.6-11.3C12.6,63,63,12.6,125,12.6z M45.7,121.7c7.1-6.4,14.2-12.8,22.4-20.3
	c0.9,3.2,3.6,7.7,2.5,10.9c-1.5,4.6-4.6,10.1-12,6.6c-1-0.5-3.5,2.1-5.6,3.3c-0.2-1.1-0.4-2.1-0.7-3.6c-2.1,1.4-4.1,2.6-6.1,3.8
	C46.1,122.2,45.9,122,45.7,121.7z M127.8,82.1c2.4,1.1,4.6,1.9,6.6,3.1c2.2,1.3,4.2,2.8,6.1,4.2c-4.7,6.6-8.4,11.8-12.4,17.5
	c2.4,0.9,4.7,1.7,7.3,2.7c-0.3,3.5-0.5,7-0.8,10.4c-0.7,0.4-1.3,0.8-2,1.2c-3.6-3.5-7.2-7-11.1-10.8c-6.4,5.1-12.8,10.3-19.3,15.4
	c-0.8-0.7-1.5-1.5-2.3-2.2c5.3-8.6,10.7-17.3,16.5-26.7c-7.4,7.1-13.9,13.6-20.8,19.5c-1.8,1.5-4.9,1.5-7.5,2.1
	c-2.3,0.5-4.9,0.3-6.9,1.2c-3.4,1.6-6.4,3.9-10,5.1c18.3-17.3,36.7-34.6,55.3-52.2c3.7,3.3-3.6,7.3-5.4,13.2
	C124.1,84.1,126.2,83,127.8,82.1z M188.7,124.8c-4.4-6.2-11.4-8.4-11.5-13.8c-4.5-3.6-8.2-6.6-12.5-10.1c3.6-3.5,6.4-6.3,9.2-9.1
	c0.5,0.3,1.1,0.6,1.6,0.9c-1,2.2-2.1,4.4-3.5,7.4C179.3,97.4,185.3,106.2,188.7,124.8z"/>
</svg>
