<?xml version="1.0" encoding="utf-8"?>
<!-- Generator: Adobe Illustrator 18.0.0, SVG Export Plug-In . SVG Version: 6.00 Build 0)  -->
<!DOCTYPE svg PUBLIC "-//W3C//DTD SVG 1.1//EN" "http://www.w3.org/Graphics/SVG/1.1/DTD/svg11.dtd">
<svg version="1.1" id="Layer_1" xmlns="http://www.w3.org/2000/svg" xmlns:xlink="http://www.w3.org/1999/xlink" x="0px" y="0px"
	 viewBox="0 0 250 250" enable-background="new 0 0 250 250" xml:space="preserve">
<path fill="#CCCCCC" d="M17.3,198.8C42.8,230,81.5,250,125,250s82.2-20,107.7-51.2c-4.3-14.5-21.4-25-37-33.7l-1.2-0.6
	c-4.7-2.6-13.6-7.5-21.8-10.8c-0.9-0.3-1.8-0.7-2.7-1.1c-6.7-2.5-13.5-5.1-14.2-12c-0.5-5.5,2.2-8.9,5.9-13.6c1-1.2,1.9-2.5,2.9-3.8
	c15.4-21.1,22.1-43,20.5-67c-2.1-31-21.6-52.4-51-55.7C131,0.2,128,0,125,0s-6,0.2-9.1,0.5C86.5,3.9,67,25.3,64.9,56.3
	c-1.6,23.9,5.1,45.8,20.5,67c1,1.3,2,2.6,2.9,3.8c3.7,4.7,6.4,8.1,5.9,13.6c-0.7,6.8-7.5,9.4-14.2,12c-0.9,0.4-1.8,0.7-2.7,1.1
	c-8.2,3.3-17,8.2-21.8,10.8l-1.2,0.6C38.7,173.8,21.6,184.2,17.3,198.8z"/>
</svg>
