<?xml version="1.0" encoding="utf-8"?>
<!-- Generator: Adobe Illustrator 18.0.0, SVG Export Plug-In . SVG Version: 6.00 Build 0)  -->
<!DOCTYPE svg PUBLIC "-//W3C//DTD SVG 1.1//EN" "http://www.w3.org/Graphics/SVG/1.1/DTD/svg11.dtd">
<svg version="1.1" id="Layer_1" xmlns="http://www.w3.org/2000/svg" xmlns:xlink="http://www.w3.org/1999/xlink" x="0px" y="0px"
	 viewBox="0 0 250 250" enable-background="new 0 0 250 250" xml:space="preserve">
<path fill="#01749D" d="M202.5,166.3c0,0.1-0.1,0.3-0.1,0.4c0,0.5-0.1,0.9-0.1,1.4c0,0.3,0,0.6-0.1,0.9c0,0.4,0,0.7-0.1,1.1
	c0,0.4,0,0.8-0.1,1.2c0,0.2,0,0.4,0,0.7c0,0.5-0.1,1-0.1,1.6c0,0.1,0,0.2,0,0.3c-0.8,9.9-3.1,19.3-6.6,27.9
	c-3.5,8.6-8.4,16.7-14.6,23.7c-0.1,0.1-0.1,0.1-0.2,0.2c-0.3,0.4-0.7,0.7-1,1.1c-0.1,0.2-0.3,0.3-0.4,0.5c-0.3,0.3-0.5,0.6-0.8,0.8
	c-0.2,0.2-0.5,0.5-0.7,0.7c-0.2,0.2-0.4,0.4-0.6,0.6c-0.3,0.3-0.6,0.6-0.9,0.9c-0.1,0.1-0.2,0.2-0.3,0.3c0,0-0.1,0.1-0.1,0.1
	c-0.4,0.3-0.7,0.7-1.1,1c-0.1,0.1-0.2,0.2-0.3,0.3c-0.4,0.4-0.8,0.7-1.2,1.1c-0.1,0.1-0.1,0.1-0.2,0.2c-0.4,0.4-0.9,0.8-1.3,1.1
	c-0.1,0-0.1,0.1-0.2,0.1c-0.5,0.4-0.9,0.8-1.4,1.1c0,0-0.1,0.1-0.1,0.1c-0.5,0.4-1,0.8-1.5,1.1c0,0,0,0,0,0c-1,0.8-2.1,1.5-3.1,2.2
	c-0.2,0.1-0.4,0.3-0.7,0.4c-0.3,0.2-0.6,0.4-0.9,0.6c-0.3,0.2-0.6,0.4-0.9,0.6c-0.2,0.1-0.4,0.3-0.7,0.4c-0.3,0.2-0.7,0.4-1,0.6
	c-0.2,0.1-0.4,0.2-0.6,0.4c-0.3,0.2-0.7,0.4-1,0.5c-0.2,0.1-0.4,0.2-0.6,0.3c-0.3,0.2-0.6,0.3-1,0.5c-0.2,0.1-0.5,0.2-0.7,0.3
	c-0.3,0.1-0.6,0.3-0.9,0.4c-0.2,0.1-0.5,0.2-0.7,0.3c-0.3,0.1-0.6,0.3-0.9,0.4c-0.3,0.1-0.5,0.2-0.8,0.3c-0.3,0.1-0.5,0.2-0.8,0.3
	c-0.3,0.1-0.6,0.2-0.9,0.4c-0.3,0.1-0.5,0.2-0.8,0.3c-0.3,0.1-0.6,0.2-1,0.3c-0.2,0.1-0.5,0.2-0.7,0.2c-0.3,0.1-0.7,0.2-1,0.3
	c-0.2,0.1-0.4,0.1-0.7,0.2c-0.4,0.1-0.7,0.2-1.1,0.3c-0.2,0.1-0.4,0.1-0.7,0.2c-0.4,0.1-0.7,0.2-1.1,0.3c-0.2,0.1-0.5,0.1-0.7,0.2
	c-0.3,0.1-0.7,0.2-1,0.3c-0.3,0.1-0.7,0.1-1,0.2c-0.3,0.1-0.5,0.1-0.8,0.2c-1.2,0.2-2.4,0.5-3.6,0.6c0,0,0,0,0,0
	c-0.6,0.1-1.2,0.2-1.8,0.2c0,0-0.1,0-0.1,0c-0.6,0.1-1.1,0.1-1.7,0.2c-0.1,0-0.1,0-0.2,0c-0.5,0-1.1,0.1-1.6,0.1c-0.1,0-0.2,0-0.3,0
	c-0.5,0-1,0.1-1.6,0.1c-0.1,0-0.3,0-0.4,0c-0.5,0-1,0-1.4,0c-0.1,0-0.1,0-0.2,0c-0.1,0-0.2,0-0.4,0c-0.4,0-0.8,0-1.2,0h-4.4
	c-0.4,0-0.8,0-1.2,0c-0.1,0-0.2,0-0.4,0c-0.1,0-0.1,0-0.2,0c-0.5,0-1,0-1.4,0c-0.1,0-0.3,0-0.4,0c-0.5,0-1,0-1.6-0.1
	c-0.1,0-0.2,0-0.3,0c-0.5,0-1.1-0.1-1.6-0.1c-0.1,0-0.1,0-0.2,0c-0.6-0.1-1.1-0.1-1.7-0.2c0,0-0.1,0-0.1,0c-0.6-0.1-1.2-0.1-1.8-0.2
	c0,0,0,0,0,0c-1.2-0.2-2.4-0.4-3.6-0.6c-0.3-0.1-0.5-0.1-0.8-0.2c-0.3-0.1-0.7-0.1-1-0.2c-0.3-0.1-0.7-0.2-1-0.3
	c-0.2-0.1-0.5-0.1-0.7-0.2c-0.4-0.1-0.7-0.2-1.1-0.3c-0.2-0.1-0.4-0.1-0.7-0.2c-0.4-0.1-0.7-0.2-1.1-0.3c-0.2-0.1-0.4-0.1-0.7-0.2
	c-0.3-0.1-0.7-0.2-1-0.3c-0.2-0.1-0.5-0.2-0.7-0.2c-0.3-0.1-0.6-0.2-1-0.3c-0.3-0.1-0.5-0.2-0.8-0.3c-0.3-0.1-0.6-0.2-0.9-0.4
	c-0.3-0.1-0.5-0.2-0.8-0.3c-0.3-0.1-0.5-0.2-0.8-0.3c-0.3-0.1-0.6-0.3-0.9-0.4c-0.2-0.1-0.5-0.2-0.7-0.3c-0.3-0.1-0.6-0.3-0.9-0.4
	c-0.2-0.1-0.5-0.2-0.7-0.3c-0.3-0.2-0.6-0.3-1-0.5c-0.2-0.1-0.4-0.2-0.6-0.3c-0.3-0.2-0.7-0.3-1-0.5c-0.2-0.1-0.4-0.2-0.6-0.4
	c-0.3-0.2-0.7-0.4-1-0.6c-0.2-0.1-0.4-0.3-0.7-0.4c-0.3-0.2-0.6-0.4-0.9-0.6c-0.3-0.2-0.6-0.4-0.9-0.6c-0.2-0.1-0.4-0.3-0.7-0.4
	c-1.1-0.7-2.1-1.4-3.1-2.2c0,0,0,0,0,0c-0.5-0.4-1-0.7-1.5-1.1c0,0-0.1-0.1-0.1-0.1c-0.5-0.4-0.9-0.7-1.4-1.1
	c-0.1,0-0.1-0.1-0.2-0.1c-0.4-0.4-0.9-0.7-1.3-1.1c-0.1-0.1-0.1-0.1-0.2-0.2c-0.4-0.4-0.8-0.7-1.2-1.1c-0.1-0.1-0.2-0.2-0.3-0.3
	c-0.4-0.3-0.7-0.7-1.1-1c0,0-0.1-0.1-0.1-0.1c-0.1-0.1-0.2-0.2-0.3-0.3c-0.3-0.3-0.6-0.6-0.9-0.9c-0.2-0.2-0.4-0.4-0.6-0.6
	c-0.2-0.2-0.5-0.5-0.7-0.7c-0.3-0.3-0.5-0.5-0.8-0.8c-0.1-0.2-0.3-0.3-0.4-0.5c-0.3-0.4-0.7-0.7-1-1.1c-0.1-0.1-0.1-0.1-0.2-0.2
	c-6.2-7-11.1-15.1-14.6-23.7c-3.5-8.6-5.8-18-6.6-27.9c0-0.1,0-0.2,0-0.3c0-0.5-0.1-1-0.1-1.6c0-0.2,0-0.4,0-0.7
	c0-0.4,0-0.8-0.1-1.2c0-0.4,0-0.7,0-1.1c0-0.3,0-0.6,0-0.9c0-0.5,0.1-0.9,0.1-1.4c0-0.1,0.1-0.3,0.1-0.4c0-0.1,0-0.1,0-0.2
	c0-0.5-0.1-1.1-0.1-1.6c0-0.1-0.1-0.3-0.1-0.4c0-0.6,0-1.2,0-1.8c0-0.1,0-0.2,0-0.3c0-0.6,0.1-1.3,0.1-1.9c0-0.1,0-0.1,0-0.2
	c0-0.7,0.1-1.3,0.2-2c0,0,0-0.1,0-0.1c0.1-0.7,0.1-1.4,0.2-2.1c0,0,0,0,0,0c0.2-1.4,0.3-2.8,0.6-4.1c0-0.3,0.1-0.6,0.1-0.8
	c0.1-0.4,0.1-0.8,0.2-1.2c0.1-0.4,0.1-0.8,0.2-1.2c0.1-0.3,0.1-0.6,0.2-0.8c0.1-0.4,0.2-0.8,0.3-1.2c0.1-0.3,0.1-0.5,0.2-0.8
	c0.1-0.4,0.2-0.8,0.3-1.2c0.1-0.3,0.1-0.5,0.2-0.8c0.1-0.4,0.2-0.8,0.3-1.2c0.1-0.3,0.1-0.5,0.2-0.8c0.1-0.4,0.2-0.7,0.3-1.1
	c0.1-0.3,0.2-0.6,0.3-0.9c0.1-0.3,0.2-0.7,0.3-1c0.1-0.3,0.2-0.6,0.3-0.9c0.1-0.3,0.2-0.6,0.3-0.9c0.1-0.3,0.2-0.7,0.3-1
	c0.1-0.3,0.2-0.6,0.3-0.8c0.1-0.4,0.3-0.7,0.4-1.1c0.1-0.3,0.2-0.5,0.3-0.8c0.1-0.4,0.3-0.7,0.4-1.1c0.1-0.2,0.2-0.5,0.3-0.7
	c0.2-0.4,0.3-0.8,0.5-1.1c0.1-0.2,0.2-0.5,0.3-0.7c0.2-0.4,0.3-0.8,0.5-1.1c0.1-0.3,0.2-0.5,0.3-0.7c0.2-0.4,0.3-0.7,0.5-1.1
	c0.2-0.3,0.3-0.7,0.5-1c0.1-0.3,0.2-0.5,0.4-0.8c0.6-1.2,1.2-2.4,1.9-3.6c0,0,0,0,0,0c0.3-0.6,0.7-1.1,1-1.7c0,0,0-0.1,0.1-0.1
	c0.3-0.5,0.7-1.1,1-1.6c0-0.1,0.1-0.1,0.1-0.2c0.3-0.5,0.6-1,1-1.5c0.1-0.1,0.1-0.2,0.2-0.2c0.3-0.5,0.6-0.9,1-1.4
	c0.1-0.1,0.2-0.2,0.2-0.3c0.3-0.4,0.6-0.8,0.9-1.3c0-0.1,3.5-4.2,3.6-4.3c24.4-29.6,47-68.3,56.7-108.2l0-0.1
	c9.6,39.9,32.3,78.5,56.7,108.1c0.1,0.1,4.2,5.4,4.5,5.9c0.1,0.1,0.2,0.2,0.2,0.3c0.3,0.5,0.6,0.9,1,1.4c0.1,0.1,0.1,0.2,0.2,0.2
	c0.3,0.5,0.7,1,1,1.5c0,0.1,0.1,0.1,0.1,0.2c0.3,0.5,0.7,1.1,1,1.6c0,0,0,0.1,0.1,0.1c0.3,0.6,0.7,1.1,1,1.7c0,0,0,0,0,0
	c0.7,1.2,1.3,2.4,1.9,3.6c0.1,0.3,0.3,0.5,0.4,0.8c0.2,0.3,0.3,0.7,0.5,1c0.2,0.4,0.3,0.7,0.5,1.1c0.1,0.2,0.2,0.5,0.3,0.7
	c0.2,0.4,0.3,0.8,0.5,1.1c0.1,0.2,0.2,0.5,0.3,0.7c0.2,0.4,0.3,0.8,0.5,1.1c0.1,0.2,0.2,0.5,0.3,0.7c0.1,0.4,0.3,0.7,0.4,1.1
	c0.1,0.3,0.2,0.5,0.3,0.8c0.1,0.4,0.3,0.7,0.4,1.1c0.1,0.3,0.2,0.6,0.3,0.8c0.1,0.3,0.2,0.7,0.3,1c0.1,0.3,0.2,0.6,0.3,0.9
	c0.1,0.3,0.2,0.6,0.3,0.9c0.1,0.3,0.2,0.7,0.3,1c0.1,0.3,0.2,0.6,0.3,0.9c0.1,0.4,0.2,0.7,0.3,1.1c0.1,0.3,0.1,0.5,0.2,0.8
	c0.1,0.4,0.2,0.8,0.3,1.2c0.1,0.3,0.1,0.5,0.2,0.8c0.1,0.4,0.2,0.8,0.3,1.2c0.1,0.3,0.1,0.5,0.2,0.8c0.1,0.4,0.2,0.8,0.3,1.2
	c0.1,0.3,0.1,0.6,0.2,0.8c0.1,0.4,0.2,0.8,0.2,1.2c0.1,0.4,0.1,0.8,0.2,1.2c0,0.3,0.1,0.6,0.1,0.8c0.2,1.4,0.4,2.7,0.6,4.1
	c0,0,0,0,0,0c0.1,0.7,0.1,1.4,0.2,2.1c0,0,0,0.1,0,0.1c0.1,0.7,0.1,1.3,0.2,2c0,0.1,0,0.1,0,0.2c0,0.6,0.1,1.3,0.1,1.9
	c0,0.1,0,0.2,0,0.3c0,0.6,0,1.2,0.1,1.8c0,0.1,0.1,0.3,0.1,0.4c0,0.5,0.2,1.1,0.2,1.6C202.5,166.1,202.5,166.2,202.5,166.3z"/>
</svg>
