<?xml version="1.0" encoding="utf-8"?>
<!-- Generator: Adobe Illustrator 18.0.0, SVG Export Plug-In . SVG Version: 6.00 Build 0)  -->
<!DOCTYPE svg PUBLIC "-//W3C//DTD SVG 1.1//EN" "http://www.w3.org/Graphics/SVG/1.1/DTD/svg11.dtd">
<svg version="1.1" id="Layer_1" xmlns="http://www.w3.org/2000/svg" xmlns:xlink="http://www.w3.org/1999/xlink" x="0px" y="0px"
	 viewBox="0 0 250 250" enable-background="new 0 0 250 250" xml:space="preserve">
<g>
	<g>
		<circle fill="#A6BD39" cx="128.8" cy="15.7" r="8.3"/>
		<circle fill="#6C8036" cx="97.7" cy="61.6" r="8.3"/>
		<circle fill="#A6BD39" cx="45.5" cy="97.7" r="8.3"/>
		<circle fill="#6C8036" cx="42.4" cy="156.7" r="8.3"/>
		<g>
			<g>
				<path fill="#A6BD39" d="M159.2,33.7L144.8,27c-0.9-0.4-1.3-1.5-0.9-2.4l1.4-2.9c0.4-0.9,1.5-1.3,2.4-0.9l14.4,6.7
					c0.9,0.4,1.3,1.5,0.9,2.4l-1.4,2.9C161.2,33.7,160.2,34.1,159.2,33.7z"/>
			</g>
		</g>
		<g>
			<g>
				<path fill="#6C8036" d="M136.1,83.3l-22.3-10.4c-0.9-0.4-1.3-1.5-0.9-2.4l1.4-2.9c0.4-0.9,1.5-1.3,2.4-0.9l22.3,10.4
					c0.9,0.4,1.3,1.5,0.9,2.4l-1.4,2.9C138,83.4,137,83.8,136.1,83.3z"/>
			</g>
		</g>
		<g>
			<g>
				<path fill="#A6BD39" d="M112.9,132.9l-51.3-24c-0.9-0.4-1.3-1.5-0.9-2.4l1.4-2.9c0.4-0.9,1.5-1.3,2.4-0.9l51.3,24
					c0.9,0.4,1.3,1.5,0.9,2.4l-1.4,2.9C114.8,133,113.8,133.4,112.9,132.9z"/>
			</g>
		</g>
		<g>
			<g>
				<path fill="#6C8036" d="M89.7,182.6L58.4,168c-0.9-0.4-1.3-1.5-0.9-2.4l1.4-2.9c0.4-0.9,1.5-1.3,2.4-0.9l31.2,14.6
					c0.9,0.4,1.3,1.5,0.9,2.4l-1.4,2.9C91.6,182.6,90.6,183,89.7,182.6z"/>
			</g>
		</g>
	</g>
	<g>
		<path fill="#6C8036" d="M103.2,177.5l92.4,0.4c6.7-9.2,11.8-19.2,15.3-29.8l-93.8-0.4L103.2,177.5z"/>
		<path fill="#A6BD39" d="M121.2,139.2l92.2,0.4c1.5-6.4,2.4-12.9,2.6-19.6c0.1-1.6-1.6-3.1-3.5-3.1c-6.8-0.1-13.4-0.3-17.9-0.5
			c-2.4-0.1-4.2-2.5-3-4.1c10.6-15.2,16.2-30,18.3-43.6l-55.6-0.2L121.2,139.2z"/>
		<path fill="#6C8036" d="M210.8,60.1c1.8-29-11.3-51.4-20.4-59.2c-1.6-1.3-4-1.2-4.7,0.3l-27.4,58.6L210.8,60.1z"/>
		<g>
			<path fill="#A6BD39" d="M99.3,186l-19.4,41.4c-0.8,1.7,1.1,3.9,3.4,3.8c44.2-0.2,81.8-17.9,105.6-44.9L99.3,186z"/>
			<path fill="#A6BD39" d="M74.5,249.6c2.2,1,4.9,0.1,5.9-2.2l12.9-27.5c0.4-0.9-0.2-2-1.4-2.6l-3.8-1.8c-1.2-0.6-2.5-0.3-2.9,0.6
				l-12.9,27.5C71.3,245.9,72.2,248.5,74.5,249.6z"/>
		</g>
	</g>
</g>
</svg>
