<?xml version="1.0" encoding="utf-8"?>
<!-- Generator: Adobe Illustrator 18.0.0, SVG Export Plug-In . SVG Version: 6.00 Build 0)  -->
<!DOCTYPE svg PUBLIC "-//W3C//DTD SVG 1.1//EN" "http://www.w3.org/Graphics/SVG/1.1/DTD/svg11.dtd">
<svg version="1.1" id="Layer_1" xmlns="http://www.w3.org/2000/svg" xmlns:xlink="http://www.w3.org/1999/xlink" x="0px" y="0px"
	 viewBox="0 0 250 250" enable-background="new 0 0 250 250" xml:space="preserve">
<path fill="#A5BD3B" d="M125,0C56.1,0,0,56.1,0,125c0,68.9,56.1,125,125,125s125-56.1,125-125C250,56.1,193.9,0,125,0z M125,12.6
	c62,0,112.4,50.4,112.4,112.4c0,16.1-3.4,31.5-9.6,45.4c-33.5-0.1-67-0.2-100.5-0.3v-11.9c13.3-1.1,21.9-11.2,24.3-14.4
	c8.8-11.7,7.9-25.2,7.6-30.3c-0.7-11.1-4.4-17.8-10.5-28.9c-3.7-6.8-8.4-15.3-14-27.6c-2.5-5.5-4.9-11.1-7-16.6l-2-5.1l-2.3,5
	c-2.5,5.4-5.1,10.8-7.7,16.1c-4.7,9.6-8.8,17.3-12.1,23.5c-9,17-13.1,24.8-13.1,36.9c0,4,0,14.6,6.6,24.8
	c6.4,9.9,15.7,15.9,25.5,16.7v11.9c-33.6-0.1-67.2-0.2-100.8-0.3c-6-13.7-9.3-28.9-9.3-44.8C12.6,63,63,12.6,125,12.6z M127.4,121.6
	l21.9-20.3l-3.2-3.5l-18.7,17.3V92.6l10-9l-3.2-3.5l-6.8,6.2V66.3h-4.7v37.9l-9.6-9.9l-3.4,3.3l13,13.4v28.8L103,124.3l-2.9,3.7
	l22.5,17.9v7.5c-11.1-1.1-18.2-9.5-21.5-14.6c-5.9-9-5.9-18.6-5.9-22.2c0-11,3.7-18,12.5-34.7c3.3-6.2,7.4-13.9,12.1-23.6
	c1.8-3.7,3.7-7.5,5.5-11.3c1.6,4,3.3,7.9,5.1,11.8c5.7,12.5,10.4,21.1,14.2,27.9c6,10.9,9.3,16.9,9.9,26.9
	c0.3,4.6,1.1,16.9-6.6,27.2c-2.1,2.8-9.4,11.4-20.6,12.5V121.6z"/>
</svg>
