<?xml version="1.0" encoding="utf-8"?>
<!-- Generator: Adobe Illustrator 18.0.0, SVG Export Plug-In . SVG Version: 6.00 Build 0)  -->
<!DOCTYPE svg PUBLIC "-//W3C//DTD SVG 1.1//EN" "http://www.w3.org/Graphics/SVG/1.1/DTD/svg11.dtd">
<svg version="1.1" id="Layer_1" xmlns="http://www.w3.org/2000/svg" xmlns:xlink="http://www.w3.org/1999/xlink" x="0px" y="0px"
	 viewBox="0 0 250 250" enable-background="new 0 0 250 250" xml:space="preserve">
<g>
	<g>
		<path fill="#323232" d="M202.8,77.7c-7.1,0-13.8,1.6-19.8,4.3c9.7,11.6,15.5,26.6,15.5,42.9s-5.8,31.3-15.5,42.9
			c6,2.8,12.7,4.3,19.8,4.3c26.1,0,47.2-21.2,47.2-47.2S228.8,77.7,202.8,77.7z"/>
		<path fill="#323232" d="M47.2,77.7c7.1,0,13.8,1.6,19.8,4.3c-9.7,11.6-15.5,26.6-15.5,42.9s5.8,31.3,15.5,42.9
			c-6,2.8-12.7,4.3-19.8,4.3C21.2,172.2,0,151.1,0,125S21.2,77.7,47.2,77.7z"/>
	</g>
	<g>
		<path fill="#323232" d="M125.5,67.4c31.7,0,57.5,25.8,57.5,57.5s-25.8,57.5-57.5,57.5S67.9,156.7,67.9,125S93.7,67.4,125.5,67.4
			 M125.5,58.9C89,58.9,59.4,88.5,59.4,125s29.6,66.1,66.1,66.1s66.1-29.6,66.1-66.1S162,58.9,125.5,58.9L125.5,58.9z"/>
	</g>
</g>
</svg>
